<?xml version="1.0" standalone="no"?>
<!DOCTYPE svg PUBLIC "-//W3C//DTD SVG 20010904//EN"
 "http://www.w3.org/TR/2001/REC-SVG-20010904/DTD/svg10.dtd">
<svg version="1.0" xmlns="http://www.w3.org/2000/svg"
 width="175.000000pt" height="60.000000pt" viewBox="0 0 175.000000 60.000000"
 preserveAspectRatio="xMidYMid meet">

<g transform="translate(0.000000,60.000000) scale(0.100000,-0.100000)"
fill="#000000" stroke="none">
<path d="M5 577 c-3 -7 -4 -136 -3 -287 l3 -275 33 -3 32 -3 0 182 c0 100 2
180 5 177 3 -3 26 -81 51 -174 24 -93 49 -173 53 -177 5 -5 19 -7 32 -5 22 3
28 18 71 178 25 96 47 171 48 165 2 -5 2 -80 1 -165 -1 -85 2 -161 7 -168 5
-8 22 -12 38 -10 l29 3 0 285 0 285 -44 0 -45 0 -55 -207 c-30 -115 -56 -206
-58 -204 -2 2 -26 89 -54 192 -27 104 -52 197 -55 207 -6 21 -82 25 -89 4z"/>
<path d="M950 505 c0 -47 -2 -85 -3 -85 -2 0 -18 7 -36 16 -104 52 -190 -64
-179 -241 6 -86 30 -140 78 -173 39 -26 64 -28 105 -6 19 10 31 11 33 5 2 -6
17 -11 33 -11 l29 0 0 290 0 290 -30 0 -30 0 0 -85z m-43 -160 c53 -37 50
-207 -4 -242 -58 -38 -109 35 -100 147 4 54 9 68 32 87 31 27 43 28 72 8z"/>
<path d="M1064 576 c-3 -8 -4 -31 -2 -52 3 -36 6 -39 36 -42 l32 -3 0 55 c0
56 0 56 -30 56 -17 0 -33 -6 -36 -14z"/>
<path d="M525 436 c-41 -18 -66 -58 -68 -109 -2 -40 -1 -42 28 -42 24 0 31 5
33 23 5 34 47 58 78 44 31 -15 41 -39 23 -57 -8 -7 -39 -20 -69 -29 -32 -9
-67 -27 -80 -41 -22 -23 -25 -36 -25 -96 0 -62 3 -71 28 -96 34 -35 103 -39
136 -9 20 18 21 18 39 -4 14 -18 25 -22 45 -16 24 6 27 11 27 51 0 31 -4 44
-12 42 -10 -1 -14 34 -18 143 -5 159 -12 182 -61 199 -41 14 -67 13 -104 -3z
m105 -250 c0 -60 -56 -110 -99 -86 -24 12 -28 52 -7 69 32 27 106 39 106 17z"/>
<path d="M1280 436 c-17 -10 -29 -11 -37 -4 -7 5 -22 8 -35 6 l-23 -3 0 -210
0 -210 30 0 30 0 5 145 c3 80 9 153 14 163 12 25 52 40 75 27 25 -13 31 -52
31 -206 l0 -134 30 0 30 0 0 170 c0 174 -8 219 -43 248 -24 20 -79 24 -107 8z"/>
<path d="M1555 436 c-47 -21 -67 -51 -73 -106 l-5 -50 31 0 c26 0 31 5 37 31
9 39 44 57 81 41 19 -9 25 -18 22 -39 -3 -23 -11 -28 -65 -43 -93 -25 -113
-49 -115 -137 -1 -57 19 -101 53 -118 37 -20 57 -19 101 3 35 18 37 18 52 0
19 -22 49 -23 65 -4 14 17 11 83 -4 76 -6 -3 -12 51 -15 147 -5 148 -6 153
-31 179 -31 31 -91 40 -134 20z m95 -266 c0 -35 -38 -80 -68 -80 -27 0 -44 24
-40 57 2 22 11 31 38 40 58 20 70 17 70 -17z"/>
<path d="M1064 427 c-2 -7 -3 -102 -2 -212 l3 -200 33 -3 32 -3 0 215 0 216
-30 0 c-17 0 -33 -6 -36 -13z"/>
</g>
</svg>
