<?xml version="1.0" standalone="no"?>
<!DOCTYPE svg PUBLIC "-//W3C//DTD SVG 20010904//EN"
 "http://www.w3.org/TR/2001/REC-SVG-20010904/DTD/svg10.dtd">
<svg version="1.0" xmlns="http://www.w3.org/2000/svg"
 width="200.000000pt" height="200.000000pt" viewBox="0 0 200.000000 200.000000"
 preserveAspectRatio="xMidYMid meet">

<g transform="translate(0.000000,200.000000) scale(0.100000,-0.100000)"
fill="#000000" stroke="none">
<path d="M1570 1129 c0 -73 -2 -80 -17 -74 -44 17 -73 16 -116 -3 -107 -48
-111 -199 -6 -252 77 -40 161 -9 193 70 12 31 16 76 16 190 l0 150 -35 0 -35
0 0 -81z m-20 -149 c21 -21 26 -69 10 -100 -23 -43 -116 -40 -134 5 -23 60 10
115 69 115 22 0 43 -8 55 -20z"/>
<path d="M300 1064 c0 -8 117 -236 132 -257 12 -16 17 -11 50 49 l36 67 25
-49 c53 -102 46 -105 126 54 l71 142 -35 0 c-33 0 -36 -3 -70 -71 -41 -80 -47
-80 -85 1 -13 27 -27 50 -32 50 -4 0 -21 -27 -38 -60 -17 -33 -34 -60 -38 -60
-5 0 -23 32 -42 70 -32 66 -36 70 -67 70 -18 0 -33 -3 -33 -6z"/>
<path d="M823 1063 c-35 -7 -80 -55 -94 -101 -24 -81 34 -168 120 -179 56 -8
117 27 142 80 23 53 23 71 -1 125 -27 61 -92 90 -167 75z m97 -83 c21 -21 26
-69 10 -100 -23 -43 -116 -40 -134 5 -23 60 10 115 69 115 22 0 43 -8 55 -20z"/>
<path d="M1120 1052 c-127 -69 -95 -251 47 -268 77 -10 153 60 153 140 0 105
-111 176 -200 128z m119 -78 c27 -35 26 -66 -2 -100 -32 -36 -83 -36 -114 1
-29 33 -29 65 -2 99 29 37 89 37 118 0z"/>
<path d="M1647 843 c-16 -15 -6 -52 15 -59 28 -9 52 20 37 47 -10 19 -39 25
-52 12z"/>
</g>
</svg>
